<?xml version="1.0" standalone="no"?>
<!DOCTYPE svg PUBLIC "-//W3C//DTD SVG 20010904//EN"
 "http://www.w3.org/TR/2001/REC-SVG-20010904/DTD/svg10.dtd">
<svg version="1.0" xmlns="http://www.w3.org/2000/svg"
 width="100.000000pt" height="50.000000pt" viewBox="0 0 100.000000 50.000000"
 preserveAspectRatio="xMidYMid meet">

<g transform="translate(0.000000,50.000000) scale(0.100000,-0.100000)"
fill="#000000" stroke="none">
<path d="M0 250 l0 -250 225 0 225 0 0 250 0 250 -225 0 -225 0 0 -250z m207
154 c3 -8 1 -20 -6 -27 -16 -16 -14 -110 4 -133 8 -10 14 -23 15 -29 0 -5 -9
4 -20 20 -13 20 -20 47 -20 81 0 27 -5 55 -11 61 -15 15 -4 43 16 43 9 0 18
-7 22 -16z m60 -70 c3 -8 1 -25 -6 -37 -6 -12 -12 -65 -14 -117 l-3 -95 -2
106 c-1 63 -7 110 -14 117 -8 8 -8 15 2 27 16 19 29 19 37 -1z m-127 -38 c0
-11 14 -39 30 -60 26 -34 30 -48 28 -95 l-1 -56 -6 60 c-6 60 -40 125 -67 125
-6 0 -17 7 -24 15 -10 12 -10 18 0 29 16 20 40 9 40 -18z m197 8 c3 -9 1 -25
-5 -35 -7 -10 -12 -32 -12 -47 0 -16 -9 -37 -19 -47 -11 -9 -22 -34 -24 -54
l-4 -36 -1 36 c-1 25 4 42 18 54 22 20 28 83 8 103 -8 8 -8 15 2 27 16 19 29
19 37 -1z"/>
<path d="M170 395 c0 -8 7 -15 15 -15 8 0 15 7 15 15 0 8 -7 15 -15 15 -8 0
-15 -7 -15 -15z"/>
<path d="M235 330 c-7 -12 2 -30 16 -30 5 0 9 9 9 20 0 21 -15 27 -25 10z"/>
<path d="M105 310 c-4 -6 -3 -16 3 -22 6 -6 12 -6 17 2 4 6 3 16 -3 22 -6 6
-12 6 -17 -2z"/>
<path d="M305 300 c-4 -6 -3 -16 3 -22 6 -6 12 -6 17 2 4 6 3 16 -3 22 -6 6
-12 6 -17 -2z"/>
<path d="M550 240 l0 -100 75 0 c43 0 75 4 75 10 0 6 -28 10 -65 10 l-65 0 0
90 c0 53 -4 90 -10 90 -6 0 -10 -40 -10 -100z"/>
<path d="M740 240 l0 -100 73 0 c43 0 78 5 85 12 15 15 16 70 1 85 -8 8 -8 13
0 17 15 9 14 59 -1 74 -7 7 -42 12 -85 12 l-73 0 0 -100z m145 45 c0 -30 0
-30 -62 -33 l-63 -3 0 36 0 36 63 -3 c62 -3 62 -3 62 -33z m5 -70 c6 -8 9 -23
5 -35 -6 -17 -15 -20 -71 -20 l-64 0 0 35 0 35 59 0 c39 0 63 -5 71 -15z"/>
</g>
</svg>
